<svg xmlns="http://www.w3.org/2000/svg" xmlns:xlink="http://www.w3.org/1999/xlink" viewBox="0 0 339 215" role="img" aria-labelledby="title description">
  <title id="title">qgh</title>
  <desc id="description">qgh wordmark with an evidence path connecting query, get, and cite.</desc>
  <metadata>Letterforms derived from Pretendard Black, licensed under SIL Open Font License 1.1.</metadata>
  <defs>
    <path id="q" d="M70.664 35.859h33.223V-95.449H71.016v16.523h-.879c-3.691-9.492-12.48-17.754-26.895-17.754-19.16 0-37.441 14.59-37.441 49.043 0 32.871 17.227 48.867 37.793 48.867 13.711 0 22.676-7.383 26.543-16.875h.527ZM55.547-24.258c-9.844 0-15.469-8.965-15.469-23.555 0-14.414 5.625-23.203 15.469-23.203 10.02 0 15.996 8.789 15.996 23.203 0 14.414-5.977 23.555-15.996 23.555Z"/>
    <path id="g" d="M54.492 37.793c29.883 0 49.746-13.535 49.746-37.793v-95.449H71.016v16.523h-.879c-3.691-9.492-12.48-17.754-26.895-17.754-19.16 0-37.441 14.59-37.441 48.867 0 32.871 17.227 46.582 37.793 46.582 13.184 0 23.203-5.801 26.895-15.293h.879V-.176c0 11.602-6.68 15.469-15.996 15.469-8.086 0-14.062-2.637-15.117-8.789H8.086c1.406 18.281 17.93 31.289 46.406 31.289Zm1.055-62.754c-9.844 0-15.469-8.262-15.469-22.852 0-14.414 5.625-23.203 15.469-23.203 10.02 0 15.996 8.789 15.996 23.203 0 14.414-5.977 22.852-15.996 22.852Z"/>
    <path id="h" d="M42.188-53.965c0-9.844 5.801-15.645 14.414-15.645 9.141 0 14.238 5.801 14.238 15.645V0h33.223v-60.82c0-21.094-13.184-35.859-33.398-35.859-14.062 0-24.434 7.207-28.652 19.16h-1.055v-49.746H8.965V0h33.223Z"/>
  </defs>

  <g fill="#18191c">
    <use xlink:href="#q" transform="translate(0 171.299)"/>
    <use xlink:href="#g" transform="translate(113 171.299)"/>
    <use xlink:href="#h" transform="translate(226 171.299)"/>
  </g>

  <g fill="none" stroke="#f0441d" stroke-width="4.8" stroke-linecap="round" stroke-linejoin="round">
    <path d="M55.5 123.5h229"/>
    <path d="M284.5 123.5v42.5c0 12 7 18 19 18h8"/>
    <circle cx="55.5" cy="123.5" r="10.5"/>
    <circle cx="168.5" cy="123.5" r="10.5"/>
    <circle cx="284.5" cy="123.5" r="10.5"/>
    <circle cx="316.5" cy="184" r="4.5" stroke-width="4"/>
  </g>
</svg>
